{"accessors":[{"bufferView":0,"byteOffset":0,"componentType":5126,"count":1371,"max":[57,44,59.5],"min":[-56.5,-21,-59.5],"normalized":false,"type":"VEC3"},{"bufferView":1,"byteOffset":0,"componentType":5126,"count":1371,"max":[0.0279415287077427,0.0313683524727821,1,1],"min":[-1,-1,-1,-1],"normalized":false,"type":"VEC4"},{"bufferView":2,"byteOffset":0,"componentType":5126,"count":1371,"max":[1,1,1],"min":[-1,-1,-1],"normalized":false,"type":"VEC3"},{"bufferView":3,"byteOffset":0,"componentType":5126,"count":1371,"max":[1,1],"min":[0,0],"normalized":false,"type":"VEC2"},{"bufferView":4,"byteOffset":0,"componentType":5123,"count":1371,"max":[1370],"min":[0],"normalized":false,"type":"SCALAR"}],"asset":{"generator":"Godot Engine v4.3.stable.steam@77dcf97d82cbfe4e4615475fa52ca03da645dbd8","version":"2.0"},"bufferViews":[{"buffer":0,"byteLength":16452,"byteOffset":0,"byteStride":12,"target":34962},{"buffer":0,"byteLength":21936,"byteOffset":16452,"byteStride":16,"target":34962},{"buffer":0,"byteLength":16452,"byteOffset":38388,"byteStride":12,"target":34962},{"buffer":0,"byteLength":10968,"byteOffset":54840,"byteStride":8,"target":34962},{"buffer":0,"byteLength":2742,"byteOffset":65808,"target":34963}],"buffers":[{"byteLength":68552,"uri":"level0.bin"}],"extensionsUsed":["GODOT_single_root"],"images":[{"uri":"textures%2F_albedo000.png"}],"materials":[{"extensions":{},"pbrMetallicRoughness":{"baseColorFactor":[0.99999988079071,0.99999988079071,0.99999988079071,1],"baseColorTexture":{"index":0},"metallicFactor":0,"roughnessFactor":1}}],"meshes":[{"extras":{"targetNames":[]},"primitives":[{"attributes":{"NORMAL":2,"POSITION":0,"TANGENT":1,"TEXCOORD_0":3},"indices":4,"material":0,"mode":4}]}],"nodes":[{"children":[1,2,3,4,5,6,7,8],"mesh":0,"name":"CSGCombiner3D2","scale":[0.600000023841858,0.300000011920929,0.600000023841858]},{"name":"FloorBox","translation":[0,-4,0]},{"name":"Wall2","rotation":[0,0.70710676908493,0,0.70710676908493],"translation":[48,11.5,0.00000158945999828575]},{"name":"Wall9","rotation":[0,0.70710676908493,0,0.70710676908493],"translation":[-47,11.5,0.00000158945999828575]},{"name":"Wall3","translation":[-0.00000317890999,12,49]},{"name":"Wall4","translation":[-0.50000101327896,12,-49]},{"name":"CSGBox3D","translation":[-32.5,6.5,15.5]},{"name":"CSGBox3D2","translation":[30.1709995269775,6.16725015640259,-15.0034999847412]},{"name":"CSGBox3D3","translation":[0,11.0886001586914,0]}],"samplers":[{"magFilter":9729,"minFilter":9987,"wrapS":10497,"wrapT":10497}],"scene":0,"scenes":[{"nodes":[0]}],"textures":[{"sampler":0,"source":0}]}